<?xml version="1.0" encoding="UTF-8" standalone="no"?>
<!-- Created with Inkscape (http://www.inkscape.org/) -->

<svg
   width="210mm"
   height="297mm"
   viewBox="0 0 210 297"
   version="1.1"
   id="svg5"
   xml:space="preserve"
   inkscape:version="1.2.2 (732a01da63, 2022-12-09)"
   sodipodi:docname="logo.svg"
   xmlns:inkscape="http://www.inkscape.org/namespaces/inkscape"
   xmlns:sodipodi="http://sodipodi.sourceforge.net/DTD/sodipodi-0.dtd"
   xmlns="http://www.w3.org/2000/svg"
   xmlns:svg="http://www.w3.org/2000/svg"><sodipodi:namedview
     id="namedview7"
     pagecolor="#ffffff"
     bordercolor="#999999"
     borderopacity="1"
     inkscape:showpageshadow="0"
     inkscape:pageopacity="0"
     inkscape:pagecheckerboard="0"
     inkscape:deskcolor="#d1d1d1"
     inkscape:document-units="mm"
     showgrid="false"
     inkscape:zoom="1.0210055"
     inkscape:cx="304.60169"
     inkscape:cy="267.38348"
     inkscape:window-width="1366"
     inkscape:window-height="715"
     inkscape:window-x="-8"
     inkscape:window-y="-8"
     inkscape:window-maximized="1"
     inkscape:current-layer="layer1" /><defs
     id="defs2" /><g
     inkscape:label="Layer 1"
     inkscape:groupmode="layer"
     id="layer1"><path
       style="fill:#e5b80b;fill-opacity:1;stroke-width:0.614703"
       d="m 123.67727,54.897007 c -0.78233,-1.436853 -3.22375,-4.442431 -5.42538,-6.679042 -6.59243,-6.697146 -14.17533,-9.764251 -24.140456,-9.764251 -6.047171,0 -12.445675,1.740618 -17.202307,4.679634 -2.999148,1.853095 -7.951732,6.466148 -9.824736,9.151182 -0.70752,1.014254 0.277603,0.294756 2.189162,-1.598886 6.118204,-6.060869 13.515145,-9.143828 21.938806,-9.143828 10.149351,0 18.779071,4.385784 24.890311,12.64972 2.43388,3.29122 2.48005,3.317967 5.72535,3.317967 h 3.27166 z"
       id="path548" /><path
       style="fill:#e5b80b;fill-opacity:1;stroke-width:0.614703"
       d="m 62.732964,54.897007 c 4.02555,-8.272247 13.02352,-15.407118 22.691919,-17.99339 4.88771,-1.30744 13.951487,-1.301272 18.500387,0.01219 7.64079,2.206902 15.67336,7.767873 20.42295,14.138901 l 1.37479,1.84412 -1.11937,-2.125284 c -1.8723,-3.554821 -9.99853,-11.327416 -14.33549,-13.711631 -6.68201,-3.673412 -12.154434,-5.041632 -19.977843,-4.994933 -5.757044,0.03433 -7.535891,0.302423 -11.971942,1.803956 -9.11435,3.085034 -17.153793,9.536093 -21.932349,17.599035 -1.066858,1.800123 -2.122809,3.895351 -2.346561,4.656041 -0.391825,1.332097 -0.262538,1.383082 3.507684,1.383082 h 3.914503 z"
       id="path546" /><path
       style="fill:#e5b80b;fill-opacity:1;stroke-width:0.614703"
       d="m 118.47174,78.870433 c 1.7643,-2.342885 10.24918,-15.758523 10.68506,-16.894383 0.21582,-0.562432 -0.53325,-0.778324 -2.70057,-0.778324 h -2.99926 l -3.61277,5.839662 c -1.98705,3.211833 -3.7789,5.834644 -3.98194,5.828493 -0.20303,-0.007 -1.75222,-2.378901 -3.44266,-5.272751 -1.69042,-2.893868 -3.39778,-5.532709 -3.79413,-5.864126 -0.39634,-0.3314 -1.97153,-0.517356 -3.50044,-0.413244 l -2.77982,0.189319 5.36224,8.686328 c 2.94921,4.777472 5.73388,9.134175 6.18818,9.68157 1.28202,1.544748 2.92972,1.183761 4.57611,-1.002544 z"
       id="path544" /><path
       style="fill:#e5b80b;fill-opacity:1;stroke-width:0.614703"
       d="M 89.475897,79.792475 C 90.623265,78.440444 101.0476,61.99405 101.0476,61.535886 c 0,-0.185991 -1.36027,-0.33816 -3.022839,-0.33816 H 95.001922 L 91.416705,67.0342 c -1.971862,3.210073 -3.723519,5.83649 -3.892562,5.83649 -0.169037,0 -1.920702,-2.626417 -3.892564,-5.83649 l -3.585217,-5.836474 h -3.022838 c -1.662569,0 -3.022844,0.1143 -3.022844,0.254034 0,0.457606 10.546966,17.237561 11.527983,18.340715 0.526136,0.591655 1.424106,1.075728 1.99548,1.075728 0.571372,0 1.449667,-0.484073 1.951754,-1.075728 z"
       id="path542" /><path
       style="fill:#e5b80b;fill-opacity:1;stroke-width:0.614703"
       d="m 71.12603,78.463079 1.591646,-2.405141 -6.672179,-0.207354 c -7.813405,-0.242813 -9.256499,-0.993884 -9.256499,-4.81762 0,-3.619204 1.562231,-4.569996 7.919732,-4.820075 l 5.333626,-0.209793 1.420073,-2.467435 1.420074,-2.467418 -7.682826,0.218418 c -7.528879,0.214027 -7.730146,0.256543 -10.044537,2.122043 -4.010919,3.232988 -4.813334,8.472039 -2.00489,13.090164 1.801873,2.962939 5.403188,4.339644 11.394523,4.355849 l 4.989613,0.01395 1.591644,-2.405142 z"
       id="path540" /><path
       style="fill:#e5b80b;fill-opacity:1;stroke-width:0.614703"
       d="m 103.07417,102.69686 c 8.0848,-2.10582 16.9212,-8.765554 20.6031,-15.527938 l 1.42241,-2.612495 h -3.33851 c -3.17416,0 -3.41435,0.113429 -4.87899,2.305141 -5.49996,8.229976 -13.8052,12.965892 -23.747079,13.541322 -10.023573,0.58015 -18.225897,-2.761962 -25.176449,-10.258414 -1.936366,-2.088448 -1.978535,-2.104043 -0.783899,-0.289981 3.46981,5.268936 11.682103,10.984655 18.50528,12.879565 3.880527,1.0777 13.190191,1.0578 17.394137,-0.0371 z"
       id="path538" /><path
       style="fill:#e5b80b;fill-opacity:1;stroke-width:0.614703"
       d="m 102.01108,108.49014 c 6.64266,-2.02396 11.74,-5.16102 16.86292,-10.377981 2.53565,-2.582194 5.11399,-5.651267 5.72964,-6.820182 l 1.11937,-2.125284 -1.37479,1.84412 c -4.74959,6.371027 -12.78216,11.931997 -20.42295,14.138917 -4.546872,1.31328 -13.612761,1.32001 -18.495912,0.0139 -8.907679,-2.38285 -18.31994,-9.622866 -22.192919,-17.071032 l -1.83717,-3.53311 -3.883316,-0.0012 c -3.738155,-0.0012 -3.86811,0.05018 -3.476498,1.381618 0.675148,2.295331 4.093932,7.682684 6.940106,10.936267 5.372248,6.141307 14.734668,11.377427 22.982347,12.853387 4.699188,0.84095 13.119967,0.26288 18.049172,-1.23902 z"
       id="path536" /></g></svg>
