<?xml version="1.0" encoding="UTF-8" standalone="no"?>
<svg
   xmlns:dc="http://purl.org/dc/elements/1.1/"
   xmlns:cc="http://creativecommons.org/ns#"
   xmlns:rdf="http://www.w3.org/1999/02/22-rdf-syntax-ns#"
   xmlns:svg="http://www.w3.org/2000/svg"
   xmlns="http://www.w3.org/2000/svg"
   id="svg920"
   version="1.1"
   viewBox="0 0 210 297"
   height="297mm"
   width="210mm">
  <defs
     id="defs914" />
  <metadata
     id="metadata917">
    <rdf:RDF>
      <cc:Work
         rdf:about="">
        <dc:format>image/svg+xml</dc:format>
        <dc:type
           rdf:resource="http://purl.org/dc/dcmitype/StillImage" />
        <dc:title></dc:title>
      </cc:Work>
    </rdf:RDF>
  </metadata>
  <g
     id="layer1">
    <g
       id="g932"
       transform="matrix(0.5562927,0,0,0.5562927,-102.38006,152.52234)"
       style="opacity:1">
      <path
         id="path894"
         d="m 269.22586,6.8644745 -0.0387,13.7316675 -11.91134,6.832296 -11.87261,-6.899372 0.0387,-13.7316695 11.91135,-6.8323068 z"
         style="opacity:1;vector-effect:none;fill:none;fill-opacity:1;stroke:#ff0000;stroke-width:1.48800004;stroke-linecap:butt;stroke-linejoin:miter;stroke-miterlimit:4;stroke-dasharray:none;stroke-dashoffset:0;stroke-opacity:1" />
      <path
         id="path896"
         d="m 255.47146,0.2532517 a 1.8809686,1.8809686 0 0 1 1.88627,-1.8756567 1.8809686,1.8809686 0 0 1 1.87565,1.8862664 1.8809686,1.8809686 0 0 1 -1.88626,1.8756557 1.8809686,1.8809686 0 0 1 -1.87566,-1.8862654 z"
         style="opacity:1;vector-effect:none;fill:#ff0000;fill-opacity:1;stroke:#ff0000;stroke-width:0.41652089;stroke-linecap:butt;stroke-linejoin:miter;stroke-miterlimit:4;stroke-dasharray:none;stroke-dashoffset:0;stroke-opacity:1" />
      <path
         style="opacity:1;vector-effect:none;fill:#ff0000;fill-opacity:1;stroke:#ff0000;stroke-width:0.41652089;stroke-linecap:butt;stroke-linejoin:miter;stroke-miterlimit:4;stroke-dasharray:none;stroke-dashoffset:0;stroke-opacity:1"
         d="m 255.39535,27.240659 a 1.8809686,1.8809686 0 0 1 1.88626,-1.875656 1.8809686,1.8809686 0 0 1 1.87566,1.886265 1.8809686,1.8809686 0 0 1 -1.88627,1.875654 1.8809686,1.8809686 0 0 1 -1.87565,-1.886263 z"
         id="path898" />
      <path
         id="path900"
         d="m 267.55877,6.8108255 a 1.8809686,1.8809686 0 0 1 1.88627,-1.8756569 1.8809686,1.8809686 0 0 1 1.87566,1.8862669 1.8809686,1.8809686 0 0 1 -1.88627,1.875655 1.8809686,1.8809686 0 0 1 -1.87566,-1.886265 z"
         style="opacity:1;vector-effect:none;fill:#ff0000;fill-opacity:1;stroke:#ff0000;stroke-width:0.41652089;stroke-linecap:butt;stroke-linejoin:miter;stroke-miterlimit:4;stroke-dasharray:none;stroke-dashoffset:0;stroke-opacity:1" />
      <path
         style="opacity:1;vector-effect:none;fill:#ff0000;fill-opacity:1;stroke:#ff0000;stroke-width:0.41652089;stroke-linecap:butt;stroke-linejoin:miter;stroke-miterlimit:4;stroke-dasharray:none;stroke-dashoffset:0;stroke-opacity:1"
         d="m 267.30534,20.884304 a 1.8809686,1.8809686 0 0 1 1.88627,-1.875656 1.8809686,1.8809686 0 0 1 1.87566,1.886265 1.8809686,1.8809686 0 0 1 -1.88627,1.875655 1.8809686,1.8809686 0 0 1 -1.87566,-1.886264 z"
         id="path902" />
      <path
         id="path904"
         d="m 243.5616,6.5563925 a 1.8809686,1.8809686 0 0 1 1.88627,-1.8756554 1.8809686,1.8809686 0 0 1 1.87566,1.8862654 1.8809686,1.8809686 0 0 1 -1.88627,1.875655 1.8809686,1.8809686 0 0 1 -1.87566,-1.886265 z"
         style="opacity:1;vector-effect:none;fill:#ff0000;fill-opacity:1;stroke:#ff0000;stroke-width:0.41652089;stroke-linecap:butt;stroke-linejoin:miter;stroke-miterlimit:4;stroke-dasharray:none;stroke-dashoffset:0;stroke-opacity:1" />
      <path
         style="opacity:1;vector-effect:none;fill:#ff0000;fill-opacity:1;stroke:#ff0000;stroke-width:0.41652089;stroke-linecap:butt;stroke-linejoin:miter;stroke-miterlimit:4;stroke-dasharray:none;stroke-dashoffset:0;stroke-opacity:1"
         d="m 243.52155,20.759461 a 1.8809686,1.8809686 0 0 1 1.88627,-1.875656 1.8809686,1.8809686 0 0 1 1.87565,1.886265 1.8809686,1.8809686 0 0 1 -1.88626,1.875654 1.8809686,1.8809686 0 0 1 -1.87566,-1.886263 z"
         id="path906" />
      <path
         style="opacity:1;vector-effect:none;fill:#ff0000;fill-opacity:1;stroke:#ff0000;stroke-width:0.27406773;stroke-linecap:butt;stroke-linejoin:miter;stroke-miterlimit:4;stroke-dasharray:none;stroke-dashoffset:0;stroke-opacity:1"
         d="m 256.17458,13.41755 a 1.2376638,1.2376638 0 0 1 1.24115,-1.234169 1.2376638,1.2376638 0 0 1 1.23416,1.24115 1.2376638,1.2376638 0 0 1 -1.24114,1.234167 1.2376638,1.2376638 0 0 1 -1.23417,-1.241148 z"
         id="path908" />
      <path
         id="path910"
         d="m 263.01267,17.918371 a 1.2376638,1.2376638 0 0 1 1.24114,-1.23417 1.2376638,1.2376638 0 0 1 1.23417,1.24115 1.2376638,1.2376638 0 0 1 -1.24115,1.234167 1.2376638,1.2376638 0 0 1 -1.23416,-1.241147 z"
         style="opacity:1;vector-effect:none;fill:#ff0000;fill-opacity:1;stroke:#ff0000;stroke-width:0.27406773;stroke-linecap:butt;stroke-linejoin:miter;stroke-miterlimit:4;stroke-dasharray:none;stroke-dashoffset:0;stroke-opacity:1" />
      <path
         style="opacity:1;vector-effect:none;fill:#ff0000;fill-opacity:1;stroke:#ff0000;stroke-width:0.27406773;stroke-linecap:butt;stroke-linejoin:miter;stroke-miterlimit:4;stroke-dasharray:none;stroke-dashoffset:0;stroke-opacity:1"
         d="m 249.76063,17.880995 a 1.2376638,1.2376638 0 0 1 1.24115,-1.234168 1.2376638,1.2376638 0 0 1 1.23416,1.241149 1.2376638,1.2376638 0 0 1 -1.24114,1.234168 1.2376638,1.2376638 0 0 1 -1.23417,-1.241149 z"
         id="path912" />
      <path
         id="path914"
         d="m 256.00089,6.5763755 a 1.2376638,1.2376638 0 0 1 1.24114,-1.2341681 1.2376638,1.2376638 0 0 1 1.23417,1.2411501 1.2376638,1.2376638 0 0 1 -1.24115,1.234167 1.2376638,1.2376638 0 0 1 -1.23416,-1.241149 z"
         style="opacity:1;vector-effect:none;fill:#ff0000;fill-opacity:1;stroke:#ff0000;stroke-width:0.27406773;stroke-linecap:butt;stroke-linejoin:miter;stroke-miterlimit:4;stroke-dasharray:none;stroke-dashoffset:0;stroke-opacity:1" />
      <path
         id="path916"
         d="m 257.28313,24.835838 0.12411,-9.647974"
         style="opacity:1;vector-effect:none;fill:none;fill-opacity:1;stroke:#ff0000;stroke-width:0.588;stroke-linecap:butt;stroke-linejoin:miter;stroke-miterlimit:4;stroke-dasharray:none;stroke-dashoffset:0;stroke-opacity:1" />
      <path
         id="path918"
         d="m 257.30763,4.8920767 0.0457,-4.9269868"
         style="opacity:1;vector-effect:none;fill:none;fill-opacity:1;stroke:#ff2b46;stroke-width:0.588;stroke-linecap:butt;stroke-linejoin:miter;stroke-miterlimit:4;stroke-dasharray:none;stroke-dashoffset:0;stroke-opacity:1" />
      <path
         id="path920"
         d="M 255.79078,12.644498 247.69377,7.9375825"
         style="opacity:1;vector-effect:none;fill:none;fill-opacity:1;stroke:#ff0000;stroke-width:0.588;stroke-linecap:butt;stroke-linejoin:miter;stroke-miterlimit:4;stroke-dasharray:none;stroke-dashoffset:0;stroke-opacity:1" />
      <path
         id="path922"
         d="m 259.07185,12.56395 8.30754,-4.5180295"
         style="opacity:1;vector-effect:none;fill:none;fill-opacity:1;stroke:#ff0000;stroke-width:0.588;stroke-linecap:butt;stroke-linejoin:miter;stroke-miterlimit:4;stroke-dasharray:none;stroke-dashoffset:0;stroke-opacity:1" />
      <path
         id="path924"
         d="m 249.56546,18.652414 -4.16228,1.876652"
         style="opacity:1;vector-effect:none;fill:none;fill-opacity:1;stroke:#ff0000;stroke-width:0.588;stroke-linecap:butt;stroke-linejoin:miter;stroke-miterlimit:4;stroke-dasharray:none;stroke-dashoffset:0;stroke-opacity:1" />
      <path
         id="path926"
         d="m 265.72584,18.766041 3.46129,1.830101"
         style="opacity:1;vector-effect:none;fill:none;fill-opacity:1;stroke:#ff0000;stroke-width:0.588;stroke-linecap:butt;stroke-linejoin:miter;stroke-miterlimit:4;stroke-dasharray:none;stroke-dashoffset:0;stroke-opacity:1" />
      <path
         d="m 251.99807,19.211697 5.40639,2.917494 5.54368,-3.155446"
         style="opacity:1;vector-effect:none;fill:none;fill-opacity:1;stroke:#ff0000;stroke-width:0.588;stroke-linecap:butt;stroke-linejoin:miter;stroke-miterlimit:4;stroke-dasharray:none;stroke-dashoffset:0;stroke-opacity:1"
         id="path928" />
      <path
         d="m 255.50466,6.9950035 -4.5338,2.763515 -0.0124,6.1620855 m 13.22818,0.401216 0.0287,-6.4067635 -5.2648,-2.890805"
         style="opacity:1;vector-effect:none;fill:none;fill-opacity:1;stroke:#ff0000;stroke-width:0.588;stroke-linecap:butt;stroke-linejoin:miter;stroke-miterlimit:4;stroke-dasharray:none;stroke-dashoffset:0;stroke-opacity:1"
         id="path930" />
    </g>
  </g>
</svg>
